<svg xmlns="http://www.w3.org/2000/svg" width="140" height="140" viewBox="0 0 140 140" fill="none"><g><g transform="matrix(1 0 0 1 7.292 7.292)"><defs><linearGradient id="chat-bot-1" gradientUnits="userSpaceOnUse" x1="-16.032" y1="-155.278" x2="182.443" y2="415.07"><stop offset="0.221" stop-color="#efeded"/><stop offset="0.5" stop-color="#edebeb"/><stop offset="0.814" stop-color="#555555"/></linearGradient></defs><path d="M49.5833 13.125C49.5833 5.87627 55.4598 0 62.7083 0C69.9568 0 75.8333 5.87627 75.8333 13.125C75.8333 18.8397 72.1811 23.7014 67.0833 25.5032L67.0833 35L91.875 35C100.735 35 107.917 42.1821 107.917 51.0417L107.917 97.7083C107.917 106.568 100.735 113.75 91.875 113.75L64.0331 113.75L47.6352 124.682C46.2926 125.577 44.5665 125.661 43.144 124.899C41.7214 124.137 40.8333 122.655 40.8333 121.042L40.8333 113.75L33.5417 113.75C24.6821 113.75 17.5 106.568 17.5 97.7083L17.5 51.0417C17.5 42.1821 24.6821 35 33.5417 35L58.3333 35L58.3333 25.5032C53.2356 23.7014 49.5833 18.8397 49.5833 13.125ZM125.417 65.625C125.417 59.9871 120.846 55.4167 115.208 55.4167L115.208 93.3333C120.846 93.3333 125.417 88.7629 125.417 83.125L125.417 65.625ZM10.2083 93.3333C4.57042 93.3333 0 88.7629 0 83.125L0 65.625C0 59.9871 4.57042 55.4167 10.2083 55.4167L10.2083 93.3333ZM45.2083 52.5C47.6246 52.5 49.5833 54.4588 49.5833 56.875L49.5833 68.5417C49.5833 70.9578 47.6246 72.9167 45.2083 72.9167C42.7921 72.9167 40.8333 70.9578 40.8333 68.5417L40.8333 56.875C40.8333 54.4588 42.7921 52.5 45.2083 52.5ZM80.2083 52.5C82.6245 52.5 84.5833 54.4588 84.5833 56.875L84.5833 68.5417C84.5833 70.9578 82.6245 72.9167 80.2083 72.9167C77.7922 72.9167 75.8333 70.9578 75.8333 68.5417L75.8333 56.875C75.8333 54.4588 77.7922 52.5 80.2083 52.5ZM54.3317 83.1565C52.9077 81.529 50.4629 81.1697 48.6148 82.4017C46.6044 83.7416 46.0612 86.4582 47.4014 88.4683L47.407 88.4765L47.4125 88.4853L47.4239 88.5016L47.4474 88.536L47.4978 88.6072C47.5329 88.6562 47.5711 88.7075 47.6125 88.7606C47.6953 88.8668 47.7906 88.9817 47.9 89.1024C48.1192 89.3445 48.3915 89.6087 48.727 89.8835C49.4006 90.4348 50.305 91.0064 51.506 91.5215C53.8936 92.5447 57.4315 93.3333 62.7083 93.3333C67.9852 93.3333 71.5231 92.5447 73.9107 91.5215C75.1117 91.0064 76.0159 90.4348 76.6897 89.8835C77.0251 89.6087 77.2975 89.3445 77.5168 89.1024C77.6259 88.9817 77.7216 88.8668 77.8044 88.7606C77.8458 88.7075 77.8837 88.6562 77.9187 88.6072L77.9695 88.536L77.9928 88.5016L78.0039 88.4853L78.0098 88.4765L77.9187 88.6072L78.015 88.4683C79.3555 86.4582 78.8124 83.7416 76.8017 82.4017C74.9537 81.1697 72.5089 81.529 71.085 83.1565C70.994 83.2178 70.7986 83.3356 70.4643 83.4785C69.4487 83.9137 67.1533 84.5833 62.7083 84.5833C58.2633 84.5833 55.9679 83.9137 54.9523 83.4785C54.6181 83.3356 54.4227 83.2178 54.3317 83.1565Z" fill="#141b34" fill-rule="evenodd"/><path d="M49.5833 13.125C49.5833 5.87627 55.4598 0 62.7083 0C69.9568 0 75.8333 5.87627 75.8333 13.125C75.8333 18.8397 72.1811 23.7014 67.0833 25.5032L67.0833 35L91.875 35C100.735 35 107.917 42.1821 107.917 51.0417L107.917 97.7083C107.917 106.568 100.735 113.75 91.875 113.75L64.0331 113.75L47.6352 124.682C46.2926 125.577 44.5665 125.661 43.144 124.899C41.7214 124.137 40.8333 122.655 40.8333 121.042L40.8333 113.75L33.5417 113.75C24.6821 113.75 17.5 106.568 17.5 97.7083L17.5 51.0417C17.5 42.1821 24.6821 35 33.5417 35L58.3333 35L58.3333 25.5032C53.2356 23.7014 49.5833 18.8397 49.5833 13.125ZM125.417 65.625C125.417 59.9871 120.846 55.4167 115.208 55.4167L115.208 93.3333C120.846 93.3333 125.417 88.7629 125.417 83.125L125.417 65.625ZM10.2083 93.3333C4.57042 93.3333 0 88.7629 0 83.125L0 65.625C0 59.9871 4.57042 55.4167 10.2083 55.4167L10.2083 93.3333ZM45.2083 52.5C47.6246 52.5 49.5833 54.4588 49.5833 56.875L49.5833 68.5417C49.5833 70.9578 47.6246 72.9167 45.2083 72.9167C42.7921 72.9167 40.8333 70.9578 40.8333 68.5417L40.8333 56.875C40.8333 54.4588 42.7921 52.5 45.2083 52.5ZM80.2083 52.5C82.6245 52.5 84.5833 54.4588 84.5833 56.875L84.5833 68.5417C84.5833 70.9578 82.6245 72.9167 80.2083 72.9167C77.7922 72.9167 75.8333 70.9578 75.8333 68.5417L75.8333 56.875C75.8333 54.4588 77.7922 52.5 80.2083 52.5ZM54.3317 83.1565C52.9077 81.529 50.4629 81.1697 48.6148 82.4017C46.6044 83.7416 46.0612 86.4582 47.4014 88.4683L47.407 88.4765L47.4125 88.4853L47.4239 88.5016L47.4474 88.536L47.4978 88.6072C47.5329 88.6562 47.5711 88.7075 47.6125 88.7606C47.6953 88.8668 47.7906 88.9817 47.9 89.1024C48.1192 89.3445 48.3915 89.6087 48.727 89.8835C49.4006 90.4348 50.305 91.0064 51.506 91.5215C53.8936 92.5447 57.4315 93.3333 62.7083 93.3333C67.9852 93.3333 71.5231 92.5447 73.9107 91.5215C75.1117 91.0064 76.0159 90.4348 76.6897 89.8835C77.0251 89.6087 77.2975 89.3445 77.5168 89.1024C77.6259 88.9817 77.7216 88.8668 77.8044 88.7606C77.8458 88.7075 77.8837 88.6562 77.9187 88.6072L77.9695 88.536L77.9928 88.5016L78.0039 88.4853L78.0098 88.4765L77.9187 88.6072L78.015 88.4683C79.3555 86.4582 78.8124 83.7416 76.8017 82.4017C74.9537 81.1697 72.5089 81.529 71.085 83.1565C70.994 83.2178 70.7986 83.3356 70.4643 83.4785C69.4487 83.9137 67.1533 84.5833 62.7083 84.5833C58.2633 84.5833 55.9679 83.9137 54.9523 83.4785C54.6181 83.3356 54.4227 83.2178 54.3317 83.1565Z" fill="url(#chat-bot-1)" fill-rule="evenodd"/></g></g></svg>